<svg version="1.1" xmlns="http://www.w3.org/2000/svg" viewBox="0 0 733.6000671386716 605.6000518798828" width="733.6000671386716" height="605.6000518798828">
  <!-- svg-source:excalidraw -->

  <defs>
    <style>
      @font-face {
        font-family: "Virgil";
        src: url("https://excalidraw.com/Virgil.woff2");
      }
      @font-face {
        font-family: "Cascadia";
        src: url("https://excalidraw.com/Cascadia.woff2");
      }
    </style>
  </defs>
  <rect x="0" y="0" width="733.6000671386716" height="605.6000518798828" fill="#ffffff"></rect><g stroke-linecap="round" transform="translate(10 10) rotate(0 356.8000335693358 292.8000259399414)"><path d="M0 0 L713.6 0 L713.6 585.6 L0 585.6" stroke="none" stroke-width="0" fill="#ced4da"></path><path d="M0 0 C158.28 0, 316.56 0, 713.6 0 M0 0 C148.29 0, 296.59 0, 713.6 0 M713.6 0 C713.6 184.09, 713.6 368.18, 713.6 585.6 M713.6 0 C713.6 139.94, 713.6 279.88, 713.6 585.6 M713.6 585.6 C519.53 585.6, 325.45 585.6, 0 585.6 M713.6 585.6 C455.67 585.6, 197.74 585.6, 0 585.6 M0 585.6 C0 363.66, 0 141.71, 0 0 M0 585.6 C0 383.08, 0 180.55, 0 0" stroke="#343a40" stroke-width="1" fill="none"></path></g><g stroke-linecap="round" transform="translate(22 21.20001220703125) rotate(0 344.8000030517578 28.79999542236328)"><path d="M0 0 L689.6 0 L689.6 57.6 L0 57.6" stroke="none" stroke-width="0" fill="#4c6ef5"></path><path d="M0 0 C157.65 0, 315.29 0, 689.6 0 M0 0 C182.68 0, 365.35 0, 689.6 0 M689.6 0 C689.6 19.22, 689.6 38.45, 689.6 57.6 M689.6 0 C689.6 11.76, 689.6 23.51, 689.6 57.6 M689.6 57.6 C487.15 57.6, 284.7 57.6, 0 57.6 M689.6 57.6 C415.09 57.6, 140.58 57.6, 0 57.6 M0 57.6 C0 35.19, 0 12.79, 0 0 M0 57.6 C0 45.68, 0 33.77, 0 0" stroke="#364fc7" stroke-width="1" fill="none"></path></g><g stroke-linecap="round" transform="translate(22.399932861328125 100.00003051757812) rotate(0 344.8000030517578 28.79999542236328)"><path d="M0 0 L689.6 0 L689.6 57.6 L0 57.6" stroke="none" stroke-width="0" fill="#4c6ef5"></path><path d="M0 0 C176.19 0, 352.39 0, 689.6 0 M0 0 C254.94 0, 509.88 0, 689.6 0 M689.6 0 C689.6 11.7, 689.6 23.39, 689.6 57.6 M689.6 0 C689.6 21.97, 689.6 43.93, 689.6 57.6 M689.6 57.6 C470.35 57.6, 251.1 57.6, 0 57.6 M689.6 57.6 C527.7 57.6, 365.8 57.6, 0 57.6 M0 57.6 C0 36.69, 0 15.78, 0 0 M0 57.6 C0 37.7, 0 17.8, 0 0" stroke="#364fc7" stroke-width="1" fill="none"></path></g><g stroke-linecap="round" transform="translate(22.799896240234375 170.79998779296875) rotate(0 200.7999725341797 81.59996795654297)"><path d="M0 0 L401.6 0 L401.6 163.2 L0 163.2" stroke="none" stroke-width="0" fill="#4c6ef5"></path><path d="M0 0 C105.98 0, 211.96 0, 401.6 0 M0 0 C92.39 0, 184.79 0, 401.6 0 M401.6 0 C401.6 45.19, 401.6 90.38, 401.6 163.2 M401.6 0 C401.6 57.3, 401.6 114.6, 401.6 163.2 M401.6 163.2 C296.17 163.2, 190.74 163.2, 0 163.2 M401.6 163.2 C308.07 163.2, 214.55 163.2, 0 163.2 M0 163.2 C0 104.88, 0 46.56, 0 0 M0 163.2 C0 123.79, 0 84.37, 0 0" stroke="#364fc7" stroke-width="1" fill="none"></path></g><g stroke-linecap="round" transform="translate(439.9999694824219 171.20001220703125) rotate(0 135.59996032714844 169.99999237060547)"><path d="M0 0 L271.2 0 L271.2 340 L0 340" stroke="none" stroke-width="0" fill="#4c6ef5"></path><path d="M0 0 C100.79 0, 201.59 0, 271.2 0 M0 0 C73.7 0, 147.39 0, 271.2 0 M271.2 0 C271.2 79.49, 271.2 158.99, 271.2 340 M271.2 0 C271.2 79.54, 271.2 159.08, 271.2 340 M271.2 340 C173.82 340, 76.44 340, 0 340 M271.2 340 C179.9 340, 88.6 340, 0 340 M0 340 C0 231.72, 0 123.43, 0 0 M0 340 C0 217.05, 0 94.09, 0 0" stroke="#364fc7" stroke-width="1" fill="none"></path></g><g stroke-linecap="round" transform="translate(22.39990234375 348.79998779296875) rotate(0 201.1999969482423 81.59996795654297)"><path d="M0 0 L402.4 0 L402.4 163.2 L0 163.2" stroke="none" stroke-width="0" fill="#4c6ef5"></path><path d="M0 0 C115.48 0, 230.97 0, 402.4 0 M0 0 C82.35 0, 164.7 0, 402.4 0 M402.4 0 C402.4 60.38, 402.4 120.76, 402.4 163.2 M402.4 0 C402.4 47.43, 402.4 94.86, 402.4 163.2 M402.4 163.2 C257.71 163.2, 113.02 163.2, 0 163.2 M402.4 163.2 C268.24 163.2, 134.09 163.2, 0 163.2 M0 163.2 C0 127.9, 0 92.59, 0 0 M0 163.2 C0 124.31, 0 85.41, 0 0" stroke="#364fc7" stroke-width="1" fill="none"></path></g><g stroke-linecap="round" transform="translate(22.799957275390625 523.6000671386719) rotate(0 344.8000030517578 28.79999542236328)"><path d="M0 0 L689.6 0 L689.6 57.6 L0 57.6" stroke="none" stroke-width="0" fill="#4c6ef5"></path><path d="M0 0 C139.86 0, 279.71 0, 689.6 0 M0 0 C161.93 0, 323.86 0, 689.6 0 M689.6 0 C689.6 20.88, 689.6 41.76, 689.6 57.6 M689.6 0 C689.6 16.84, 689.6 33.68, 689.6 57.6 M689.6 57.6 C425.91 57.6, 162.22 57.6, 0 57.6 M689.6 57.6 C480.86 57.6, 272.12 57.6, 0 57.6 M0 57.6 C0 42.35, 0 27.1, 0 0 M0 57.6 C0 39.38, 0 21.16, 0 0" stroke="#364fc7" stroke-width="1" fill="none"></path></g><g transform="translate(289.0000305175781 32.30000305175781) rotate(0 69.66669082641647 17.600006103515625)"><text x="0" y="28.200012207031442" font-family="Cascadia, Segoe UI Emoji" font-size="29.33334350585956px" fill="#000000" text-anchor="start" style="white-space: pre;" direction="ltr">&lt;header&gt;</text></g><g transform="translate(316.2001266479492 111.90005493164062) rotate(0 40.99995803833008 16.399983215331986)"><text x="0" y="25.79996643066405" font-family="Cascadia, Segoe UI Emoji" font-size="27.333305358886715px" fill="#000000" text-anchor="start" style="white-space: pre;" direction="ltr">&lt;nav&gt;</text></g><g transform="translate(301.40001678466797 536.3000335693359) rotate(0 64.5 16.5)"><text x="0" y="26" font-family="Cascadia, Segoe UI Emoji" font-size="27.333305358886715px" fill="#000000" text-anchor="start" style="white-space: pre;" direction="ltr">&lt;footer&gt;</text></g><g transform="translate(126.0666275024414 230.3000030517578) rotate(0 118.36668014526367 26.800003051757812)"><text x="0" y="42.60000610351563" font-family="Cascadia, Segoe UI Emoji" font-size="44.66667175292971px" fill="#000000" text-anchor="start" style="white-space: pre;" direction="ltr">&lt;section&gt;</text></g><g transform="translate(115.00003051757812 406.3000030517578) rotate(0 123.66666666666708 28)"><text x="0" y="45.00000000000022" font-family="Cascadia, Segoe UI Emoji" font-size="46.666666666666856px" fill="#000000" text-anchor="start" style="white-space: pre;" direction="ltr">&lt;article&gt;</text></g><g transform="translate(472.8999938964839 306.90000915527344) rotate(0 103.75000000000011 30)"><text x="0" y="48.000000000000064" font-family="Cascadia, Segoe UI Emoji" font-size="50.000000000000036px" fill="#000000" text-anchor="start" style="white-space: pre;" direction="ltr">&lt;aside&gt;</text></g></svg>
